<svg xmlns="http://www.w3.org/2000/svg" width="19mm" height="19mm" viewBox="0 0 90 90">
<path style="fill:#ffffff; stroke:none;" d="M0 0L0 30L10 30L10 10L30 10L30 0L0 0z"></path>
<path style="fill:#000000; stroke:none;" d="M30 0L30 10L10 10L10 30L0 30L0 50L10 50L10 70L0 70L0 90L30 90L30 80L40 80L40 90L60 90L60 80L80 80L80 90L90 90L90 70L80 70L80 50L90 50L90 40L80 40L80 30L90 30L90 20L80 20L80 10L60 10L60 0L30 0z"></path>
<path style="fill:#ffffff; stroke:none;" d="M60 0L60 10L80 10L80 20L90 20L90 0L60 0M20 20L20 70L70 70L70 20L20 20z"></path>
<path style="fill:#000000; stroke:none;" d="M30 30L30 50L40 50L40 30L30 30z"></path>
<path style="fill:#ffffff; stroke:none;" d="M80 30L80 40L90 40L90 30L80 30z"></path>
<path style="fill:#000000; stroke:none;" d="M50 40L50 50L60 50L60 40L50 40z"></path>
<path style="fill:#ffffff; stroke:none;" d="M0 50L0 70L10 70L10 50L0 50M80 50L80 70L90 70L90 50L80 50M30 80L30 90L40 90L40 80L30 80M60 80L60 90L80 90L80 80L60 80z"></path>
</svg>