<svg xmlns="http://www.w3.org/2000/svg" width="19mm" height="19mm" viewBox="0 0 90 90">
<path style="fill:#ffffff; stroke:none;" d="M0 0L0 10L30 10L30 0L0 0z"></path>
<path style="fill:#000000; stroke:none;" d="M30 0L30 10L0 10L0 20L10 20L10 50L0 50L0 60L10 60L10 80L0 80L0 90L10 90L10 80L30 80L30 90L60 90L60 80L70 80L70 90L80 90L80 70L90 70L90 60L80 60L80 40L90 40L90 30L80 30L80 20L90 20L90 0L70 0L70 10L60 10L60 0L30 0z"></path>
<path style="fill:#ffffff; stroke:none;" d="M60 0L60 10L70 10L70 0L60 0M0 20L0 50L10 50L10 20L0 20M20 20L20 70L70 70L70 20L20 20M80 20L80 30L90 30L90 20L80 20z"></path>
<path style="fill:#000000; stroke:none;" d="M40 30L40 40L30 40L30 50L40 50L40 40L50 40L50 60L60 60L60 40L50 40L50 30L40 30z"></path>
<path style="fill:#ffffff; stroke:none;" d="M80 40L80 60L90 60L90 40L80 40M0 60L0 80L10 80L10 60L0 60M80 70L80 90L90 90L90 70L80 70M10 80L10 90L30 90L30 80L10 80M60 80L60 90L70 90L70 80L60 80z"></path>
</svg>