<svg xmlns="http://www.w3.org/2000/svg" width="19mm" height="19mm" viewBox="0 0 90 90">
<path style="fill:#ffffff; stroke:none;" d="M0 0L0 10L30 10L30 0L0 0z"></path>
<path style="fill:#000000; stroke:none;" d="M30 0L30 10L0 10L0 20L10 20L10 30L0 30L0 60L10 60L10 80L0 80L0 90L20 90L20 80L30 80L30 90L40 90L40 80L60 80L60 90L70 90L70 80L80 80L80 90L90 90L90 80L80 80L80 70L90 70L90 50L80 50L80 10L70 10L70 0L30 0z"></path>
<path style="fill:#ffffff; stroke:none;" d="M70 0L70 10L80 10L80 50L90 50L90 0L70 0M0 20L0 30L10 30L10 20L0 20M20 20L20 70L70 70L70 20L20 20z"></path>
<path style="fill:#000000; stroke:none;" d="M40 30L40 50L30 50L30 60L60 60L60 50L50 50L50 30L40 30z"></path>
<path style="fill:#ffffff; stroke:none;" d="M0 60L0 80L10 80L10 60L0 60M80 70L80 80L90 80L90 70L80 70M20 80L20 90L30 90L30 80L20 80M40 80L40 90L60 90L60 80L40 80M70 80L70 90L80 90L80 80L70 80z"></path>
</svg>