<svg xmlns="http://www.w3.org/2000/svg" width="19mm" height="19mm" viewBox="0 0 90 90">
<path style="fill:#ffffff; stroke:none;" d="M0 0L0 10L30 10L30 0L0 0z"></path>
<path style="fill:#000000; stroke:none;" d="M30 0L30 10L0 10L0 20L10 20L10 50L0 50L0 90L10 90L10 80L20 80L20 90L40 90L40 80L50 80L50 90L80 90L80 60L90 60L90 50L80 50L80 20L90 20L90 0L80 0L80 10L70 10L70 0L30 0z"></path>
<path style="fill:#ffffff; stroke:none;" d="M70 0L70 10L80 10L80 0L70 0M0 20L0 50L10 50L10 20L0 20M20 20L20 70L70 70L70 20L20 20M80 20L80 50L90 50L90 20L80 20z"></path>
<path style="fill:#000000; stroke:none;" d="M30 30L30 50L40 50L40 60L60 60L60 30L30 30z"></path>
<path style="fill:#ffffff; stroke:none;" d="M80 60L80 90L90 90L90 60L80 60M10 80L10 90L20 90L20 80L10 80M40 80L40 90L50 90L50 80L40 80z"></path>
</svg>