<svg xmlns="http://www.w3.org/2000/svg" width="19mm" height="19mm" viewBox="0 0 90 90">
<path style="fill:#ffffff; stroke:none;" d="M0 0L0 10L20 10L20 0L0 0z"></path>
<path style="fill:#000000; stroke:none;" d="M20 0L20 10L0 10L0 20L10 20L10 50L0 50L0 60L10 60L10 70L0 70L0 80L10 80L10 90L20 90L20 80L50 80L50 90L60 90L60 80L80 80L80 90L90 90L90 50L80 50L80 40L90 40L90 20L80 20L80 10L90 10L90 0L80 0L80 10L30 10L30 0L20 0z"></path>
<path style="fill:#ffffff; stroke:none;" d="M30 0L30 10L80 10L80 0L30 0M80 10L80 20L90 20L90 10L80 10M0 20L0 50L10 50L10 20L0 20M20 20L20 70L70 70L70 20L20 20z"></path>
<path style="fill:#000000; stroke:none;" d="M40 30L40 40L50 40L50 50L30 50L30 60L50 60L50 50L60 50L60 40L50 40L50 30L40 30z"></path>
<path style="fill:#ffffff; stroke:none;" d="M80 40L80 50L90 50L90 40L80 40M0 60L0 70L10 70L10 60L0 60M0 80L0 90L10 90L10 80L0 80M20 80L20 90L50 90L50 80L20 80M60 80L60 90L80 90L80 80L60 80z"></path>
</svg>