<svg xmlns="http://www.w3.org/2000/svg" width="19mm" height="19mm" viewBox="0 0 90 90">
<path style="fill:#ffffff; stroke:none;" d="M0 0L0 10L30 10L30 0L0 0z"></path>
<path style="fill:#000000; stroke:none;" d="M30 0L30 10L0 10L0 20L10 20L10 30L0 30L0 70L10 70L10 90L30 90L30 80L40 80L40 90L50 90L50 80L80 80L80 90L90 90L90 60L80 60L80 40L90 40L90 30L80 30L80 10L60 10L60 0L30 0z"></path>
<path style="fill:#ffffff; stroke:none;" d="M60 0L60 10L80 10L80 30L90 30L90 0L60 0M0 20L0 30L10 30L10 20L0 20M20 20L20 70L70 70L70 20L20 20z"></path>
<path style="fill:#000000; stroke:none;" d="M30 30L30 40L60 40L60 30L30 30z"></path>
<path style="fill:#ffffff; stroke:none;" d="M80 40L80 60L90 60L90 40L80 40z"></path>
<path style="fill:#000000; stroke:none;" d="M30 50L30 60L40 60L40 50L30 50M50 50L50 60L60 60L60 50L50 50z"></path>
<path style="fill:#ffffff; stroke:none;" d="M0 70L0 90L10 90L10 70L0 70M30 80L30 90L40 90L40 80L30 80M50 80L50 90L80 90L80 80L50 80z"></path>
</svg>