<svg xmlns="http://www.w3.org/2000/svg" width="19mm" height="19mm" viewBox="0 0 90 90">
<path style="fill:#ffffff; stroke:none;" d="M0 0L0 60L10 60L10 10L20 10L20 0L0 0z"></path>
<path style="fill:#000000; stroke:none;" d="M20 0L20 10L10 10L10 60L0 60L0 90L10 90L10 80L60 80L60 90L70 90L70 80L80 80L80 90L90 90L90 70L80 70L80 60L90 60L90 40L80 40L80 20L90 20L90 0L80 0L80 10L30 10L30 0L20 0z"></path>
<path style="fill:#ffffff; stroke:none;" d="M30 0L30 10L80 10L80 0L30 0M20 20L20 70L70 70L70 20L20 20M80 20L80 40L90 40L90 20L80 20z"></path>
<path style="fill:#000000; stroke:none;" d="M30 40L30 50L40 50L40 60L60 60L60 50L40 50L40 40L30 40z"></path>
<path style="fill:#ffffff; stroke:none;" d="M80 60L80 70L90 70L90 60L80 60M10 80L10 90L60 90L60 80L10 80M70 80L70 90L80 90L80 80L70 80z"></path>
</svg>