<svg xmlns="http://www.w3.org/2000/svg" width="19mm" height="19mm" viewBox="0 0 90 90">
<path style="fill:#ffffff; stroke:none;" d="M0 0L0 10L30 10L30 0L0 0z"></path>
<path style="fill:#000000; stroke:none;" d="M30 0L30 10L0 10L0 20L10 20L10 40L0 40L0 50L10 50L10 70L0 70L0 80L30 80L30 90L40 90L40 80L50 80L50 90L60 90L60 80L70 80L70 90L90 90L90 50L80 50L80 20L90 20L90 10L80 10L80 0L70 0L70 10L60 10L60 0L30 0z"></path>
<path style="fill:#ffffff; stroke:none;" d="M60 0L60 10L70 10L70 0L60 0M80 0L80 10L90 10L90 0L80 0M0 20L0 40L10 40L10 20L0 20M20 20L20 70L70 70L70 20L20 20M80 20L80 50L90 50L90 20L80 20z"></path>
<path style="fill:#000000; stroke:none;" d="M30 30L30 60L60 60L60 40L40 40L40 30L30 30z"></path>
<path style="fill:#ffffff; stroke:none;" d="M0 50L0 70L10 70L10 50L0 50M0 80L0 90L30 90L30 80L0 80M40 80L40 90L50 90L50 80L40 80M60 80L60 90L70 90L70 80L60 80z"></path>
</svg>