<svg xmlns="http://www.w3.org/2000/svg" width="19mm" height="19mm" viewBox="0 0 90 90">
<path style="fill:#ffffff; stroke:none;" d="M0 0L0 30L10 30L10 10L30 10L30 0L0 0z"></path>
<path style="fill:#000000; stroke:none;" d="M30 0L30 10L10 10L10 30L0 30L0 50L10 50L10 80L0 80L0 90L50 90L50 80L70 80L70 90L90 90L90 80L80 80L80 70L90 70L90 40L80 40L80 0L30 0z"></path>
<path style="fill:#ffffff; stroke:none;" d="M80 0L80 40L90 40L90 0L80 0M20 20L20 70L70 70L70 20L20 20z"></path>
<path style="fill:#000000; stroke:none;" d="M30 30L30 40L40 40L40 30L30 30M50 40L50 50L30 50L30 60L60 60L60 40L50 40z"></path>
<path style="fill:#ffffff; stroke:none;" d="M0 50L0 80L10 80L10 50L0 50M80 70L80 80L90 80L90 70L80 70M50 80L50 90L70 90L70 80L50 80z"></path>
</svg>