<svg xmlns="http://www.w3.org/2000/svg" width="19mm" height="19mm" viewBox="0 0 90 90">
<path style="fill:#ffffff; stroke:none;" d="M0 0L0 30L10 30L10 10L30 10L30 0L0 0z"></path>
<path style="fill:#000000; stroke:none;" d="M30 0L30 10L10 10L10 30L0 30L0 50L10 50L10 60L0 60L0 70L10 70L10 90L20 90L20 80L30 80L30 90L40 90L40 80L50 80L50 90L70 90L70 80L80 80L80 90L90 90L90 60L80 60L80 50L90 50L90 30L80 30L80 10L70 10L70 0L30 0z"></path>
<path style="fill:#ffffff; stroke:none;" d="M70 0L70 10L80 10L80 30L90 30L90 0L70 0M20 20L20 70L70 70L70 20L20 20z"></path>
<path style="fill:#000000; stroke:none;" d="M50 30L50 40L30 40L30 50L50 50L50 60L60 60L60 30L50 30z"></path>
<path style="fill:#ffffff; stroke:none;" d="M0 50L0 60L10 60L10 50L0 50M80 50L80 60L90 60L90 50L80 50M0 70L0 90L10 90L10 70L0 70M20 80L20 90L30 90L30 80L20 80M40 80L40 90L50 90L50 80L40 80M70 80L70 90L80 90L80 80L70 80z"></path>
</svg>