<svg xmlns="http://www.w3.org/2000/svg" width="19mm" height="19mm" viewBox="0 0 90 90">
<path style="fill:#ffffff; stroke:none;" d="M0 0L0 20L10 20L10 10L30 10L30 0L0 0z"></path>
<path style="fill:#000000; stroke:none;" d="M30 0L30 10L10 10L10 20L0 20L0 50L10 50L10 80L20 80L20 90L40 90L40 80L50 80L50 90L60 90L60 80L80 80L80 90L90 90L90 80L80 80L80 40L90 40L90 0L80 0L80 10L70 10L70 0L30 0z"></path>
<path style="fill:#ffffff; stroke:none;" d="M70 0L70 10L80 10L80 0L70 0M20 20L20 70L70 70L70 20L20 20z"></path>
<path style="fill:#000000; stroke:none;" d="M40 30L40 40L30 40L30 60L50 60L50 50L60 50L60 40L50 40L50 30L40 30z"></path>
<path style="fill:#ffffff; stroke:none;" d="M80 40L80 80L90 80L90 40L80 40M0 50L0 90L20 90L20 80L10 80L10 50L0 50M40 80L40 90L50 90L50 80L40 80M60 80L60 90L80 90L80 80L60 80z"></path>
</svg>