<svg xmlns="http://www.w3.org/2000/svg" width="19mm" height="19mm" viewBox="0 0 90 90">
<path style="fill:#ffffff; stroke:none;" d="M0 0L0 10L30 10L30 0L0 0z"></path>
<path style="fill:#000000; stroke:none;" d="M30 0L30 10L0 10L0 30L10 30L10 50L0 50L0 60L10 60L10 70L0 70L0 90L40 90L40 80L50 80L50 90L60 90L60 80L70 80L70 90L80 90L80 80L90 80L90 70L80 70L80 50L90 50L90 30L80 30L80 10L90 10L90 0L30 0z"></path>
<path style="fill:#ffffff; stroke:none;" d="M80 10L80 30L90 30L90 10L80 10M20 20L20 70L70 70L70 20L20 20M0 30L0 50L10 50L10 30L0 30z"></path>
<path style="fill:#000000; stroke:none;" d="M40 30L40 40L30 40L30 60L40 60L40 50L50 50L50 60L60 60L60 40L50 40L50 30L40 30z"></path>
<path style="fill:#ffffff; stroke:none;" d="M80 50L80 70L90 70L90 50L80 50M0 60L0 70L10 70L10 60L0 60M40 80L40 90L50 90L50 80L40 80M60 80L60 90L70 90L70 80L60 80M80 80L80 90L90 90L90 80L80 80z"></path>
</svg>