<svg xmlns="http://www.w3.org/2000/svg" width="19mm" height="19mm" viewBox="0 0 90 90">
<path style="fill:#ffffff; stroke:none;" d="M0 0L0 10L30 10L30 0L0 0z"></path>
<path style="fill:#000000; stroke:none;" d="M30 0L30 10L0 10L0 20L10 20L10 30L0 30L0 40L10 40L10 70L0 70L0 80L40 80L40 90L50 90L50 80L70 80L70 90L80 90L80 80L90 80L90 60L80 60L80 10L90 10L90 0L30 0z"></path>
<path style="fill:#ffffff; stroke:none;" d="M80 10L80 60L90 60L90 10L80 10M0 20L0 30L10 30L10 20L0 20M20 20L20 70L70 70L70 20L20 20z"></path>
<path style="fill:#000000; stroke:none;" d="M30 30L30 40L40 40L40 50L50 50L50 40L60 40L60 30L50 30L50 40L40 40L40 30L30 30z"></path>
<path style="fill:#ffffff; stroke:none;" d="M0 40L0 70L10 70L10 40L0 40M0 80L0 90L40 90L40 80L0 80M50 80L50 90L70 90L70 80L50 80M80 80L80 90L90 90L90 80L80 80z"></path>
</svg>