<svg xmlns="http://www.w3.org/2000/svg" width="19mm" height="19mm" viewBox="0 0 90 90">
<path style="fill:#ffffff; stroke:none;" d="M0 0L0 10L30 10L30 0L0 0z"></path>
<path style="fill:#000000; stroke:none;" d="M30 0L30 10L0 10L0 30L10 30L10 40L0 40L0 60L10 60L10 90L60 90L60 80L70 80L70 90L90 90L90 80L80 80L80 60L90 60L90 50L80 50L80 30L90 30L90 20L80 20L80 0L30 0z"></path>
<path style="fill:#ffffff; stroke:none;" d="M80 0L80 20L90 20L90 0L80 0M20 20L20 70L70 70L70 20L20 20M0 30L0 40L10 40L10 30L0 30z"></path>
<path style="fill:#000000; stroke:none;" d="M40 30L40 40L30 40L30 50L40 50L40 40L50 40L50 30L40 30z"></path>
<path style="fill:#ffffff; stroke:none;" d="M80 30L80 50L90 50L90 30L80 30z"></path>
<path style="fill:#000000; stroke:none;" d="M50 50L50 60L60 60L60 50L50 50z"></path>
<path style="fill:#ffffff; stroke:none;" d="M0 60L0 90L10 90L10 60L0 60M80 60L80 80L90 80L90 60L80 60M60 80L60 90L70 90L70 80L60 80z"></path>
</svg>