<svg xmlns="http://www.w3.org/2000/svg" width="19mm" height="19mm" viewBox="0 0 90 90">
<path style="fill:#ffffff; stroke:none;" d="M0 0L0 10L30 10L30 0L0 0z"></path>
<path style="fill:#000000; stroke:none;" d="M30 0L30 10L0 10L0 50L10 50L10 60L0 60L0 80L50 80L50 90L70 90L70 80L80 80L80 90L90 90L90 80L80 80L80 70L90 70L90 60L80 60L80 30L90 30L90 0L30 0z"></path>
<path style="fill:#ffffff; stroke:none;" d="M20 20L20 70L70 70L70 20L20 20z"></path>
<path style="fill:#000000; stroke:none;" d="M30 30L30 40L50 40L50 60L60 60L60 30L30 30z"></path>
<path style="fill:#ffffff; stroke:none;" d="M80 30L80 60L90 60L90 30L80 30M0 50L0 60L10 60L10 50L0 50M80 70L80 80L90 80L90 70L80 70M0 80L0 90L50 90L50 80L0 80M70 80L70 90L80 90L80 80L70 80z"></path>
</svg>