<svg xmlns="http://www.w3.org/2000/svg" width="19mm" height="19mm" viewBox="0 0 90 90">
<path style="fill:#ffffff; stroke:none;" d="M0 0L0 20L10 20L10 10L30 10L30 0L0 0z"></path>
<path style="fill:#000000; stroke:none;" d="M30 0L30 10L10 10L10 20L0 20L0 40L10 40L10 50L0 50L0 90L30 90L30 80L80 80L80 50L90 50L90 40L80 40L80 10L90 10L90 0L80 0L80 10L60 10L60 0L30 0z"></path>
<path style="fill:#ffffff; stroke:none;" d="M60 0L60 10L80 10L80 0L60 0M80 10L80 40L90 40L90 10L80 10M20 20L20 70L70 70L70 20L20 20z"></path>
<path style="fill:#000000; stroke:none;" d="M30 30L30 40L40 40L40 50L50 50L50 60L60 60L60 30L30 30z"></path>
<path style="fill:#ffffff; stroke:none;" d="M0 40L0 50L10 50L10 40L0 40M80 50L80 80L30 80L30 90L90 90L90 50L80 50z"></path>
</svg>