<svg xmlns="http://www.w3.org/2000/svg" width="19mm" height="19mm" viewBox="0 0 90 90">
<path style="fill:#ffffff; stroke:none;" d="M0 0L0 40L10 40L10 10L30 10L30 0L0 0z"></path>
<path style="fill:#000000; stroke:none;" d="M30 0L30 10L10 10L10 40L0 40L0 70L10 70L10 80L20 80L20 90L90 90L90 40L80 40L80 20L90 20L90 10L70 10L70 0L30 0z"></path>
<path style="fill:#ffffff; stroke:none;" d="M70 0L70 10L90 10L90 0L70 0M20 20L20 70L70 70L70 20L20 20M80 20L80 40L90 40L90 20L80 20z"></path>
<path style="fill:#000000; stroke:none;" d="M30 30L30 60L60 60L60 50L40 50L40 40L60 40L60 30L30 30z"></path>
<path style="fill:#ffffff; stroke:none;" d="M0 70L0 90L20 90L20 80L10 80L10 70L0 70z"></path>
</svg>