<svg xmlns="http://www.w3.org/2000/svg" width="19mm" height="19mm" viewBox="0 0 90 90">
<path style="fill:#ffffff; stroke:none;" d="M0 0L0 20L10 20L10 10L20 10L20 0L0 0z"></path>
<path style="fill:#000000; stroke:none;" d="M20 0L20 10L10 10L10 20L0 20L0 30L10 30L10 70L0 70L0 90L20 90L20 80L80 80L80 90L90 90L90 70L80 70L80 30L90 30L90 20L80 20L80 10L90 10L90 0L80 0L80 10L30 10L30 0L20 0z"></path>
<path style="fill:#ffffff; stroke:none;" d="M30 0L30 10L80 10L80 0L30 0M80 10L80 20L90 20L90 10L80 10M20 20L20 70L70 70L70 20L20 20M0 30L0 70L10 70L10 30L0 30z"></path>
<path style="fill:#000000; stroke:none;" d="M30 30L30 60L40 60L40 30L30 30M50 30L50 40L60 40L60 30L50 30z"></path>
<path style="fill:#ffffff; stroke:none;" d="M80 30L80 70L90 70L90 30L80 30z"></path>
<path style="fill:#000000; stroke:none;" d="M50 50L50 60L60 60L60 50L50 50z"></path>
<path style="fill:#ffffff; stroke:none;" d="M20 80L20 90L80 90L80 80L20 80z"></path>
</svg>