<svg xmlns="http://www.w3.org/2000/svg" width="19mm" height="19mm" viewBox="0 0 90 90">
<path style="fill:#ffffff; stroke:none;" d="M0 0L0 20L10 20L10 10L30 10L30 0L0 0z"></path>
<path style="fill:#000000; stroke:none;" d="M30 0L30 10L10 10L10 20L0 20L0 30L10 30L10 90L20 90L20 80L30 80L30 90L50 90L50 80L70 80L70 90L80 90L80 60L90 60L90 20L80 20L80 10L90 10L90 0L70 0L70 10L60 10L60 0L30 0z"></path>
<path style="fill:#ffffff; stroke:none;" d="M60 0L60 10L70 10L70 0L60 0M80 10L80 20L90 20L90 10L80 10M20 20L20 70L70 70L70 20L20 20M0 30L0 90L10 90L10 30L0 30z"></path>
<path style="fill:#000000; stroke:none;" d="M30 30L30 40L40 40L40 30L30 30M50 30L50 40L60 40L60 30L50 30M30 50L30 60L40 60L40 50L30 50z"></path>
<path style="fill:#ffffff; stroke:none;" d="M80 60L80 90L90 90L90 60L80 60M20 80L20 90L30 90L30 80L20 80M50 80L50 90L70 90L70 80L50 80z"></path>
</svg>