<svg xmlns="http://www.w3.org/2000/svg" width="19mm" height="19mm" viewBox="0 0 90 90">
<path style="fill:#ffffff; stroke:none;" d="M0 0L0 40L10 40L10 10L30 10L30 0L0 0z"></path>
<path style="fill:#000000; stroke:none;" d="M30 0L30 10L10 10L10 40L0 40L0 60L10 60L10 70L0 70L0 90L10 90L10 80L30 80L30 90L40 90L40 80L60 80L60 90L90 90L90 70L80 70L80 60L90 60L90 30L80 30L80 20L90 20L90 10L80 10L80 0L70 0L70 10L60 10L60 0L30 0z"></path>
<path style="fill:#ffffff; stroke:none;" d="M60 0L60 10L70 10L70 0L60 0M80 0L80 10L90 10L90 0L80 0M20 20L20 70L70 70L70 20L20 20M80 20L80 30L90 30L90 20L80 20z"></path>
<path style="fill:#000000; stroke:none;" d="M40 30L40 50L30 50L30 60L50 60L50 30L40 30z"></path>
<path style="fill:#ffffff; stroke:none;" d="M0 60L0 70L10 70L10 60L0 60M80 60L80 70L90 70L90 60L80 60M10 80L10 90L30 90L30 80L10 80M40 80L40 90L60 90L60 80L40 80z"></path>
</svg>