<svg xmlns="http://www.w3.org/2000/svg" width="19mm" height="19mm" viewBox="0 0 90 90">
<path style="fill:#ffffff; stroke:none;" d="M0 0L0 40L10 40L10 10L20 10L20 0L0 0z"></path>
<path style="fill:#000000; stroke:none;" d="M20 0L20 10L10 10L10 40L0 40L0 60L10 60L10 80L0 80L0 90L20 90L20 80L40 80L40 90L60 90L60 80L80 80L80 70L90 70L90 60L80 60L80 20L90 20L90 10L30 10L30 0L20 0z"></path>
<path style="fill:#ffffff; stroke:none;" d="M30 0L30 10L90 10L90 0L30 0M20 20L20 70L70 70L70 20L20 20M80 20L80 60L90 60L90 20L80 20z"></path>
<path style="fill:#000000; stroke:none;" d="M40 30L40 40L30 40L30 60L40 60L40 50L60 50L60 40L50 40L50 30L40 30z"></path>
<path style="fill:#ffffff; stroke:none;" d="M0 60L0 80L10 80L10 60L0 60M80 70L80 80L60 80L60 90L90 90L90 70L80 70M20 80L20 90L40 90L40 80L20 80z"></path>
</svg>