<svg xmlns="http://www.w3.org/2000/svg" width="19mm" height="19mm" viewBox="0 0 90 90">
<path style="fill:#ffffff; stroke:none;" d="M0 0L0 10L20 10L20 0L0 0z"></path>
<path style="fill:#000000; stroke:none;" d="M20 0L20 10L0 10L0 20L10 20L10 30L0 30L0 60L10 60L10 70L0 70L0 80L20 80L20 90L30 90L30 80L40 80L40 90L60 90L60 80L70 80L70 90L90 90L90 60L80 60L80 50L90 50L90 40L80 40L80 30L90 30L90 0L70 0L70 10L30 10L30 0L20 0z"></path>
<path style="fill:#ffffff; stroke:none;" d="M30 0L30 10L70 10L70 0L30 0M0 20L0 30L10 30L10 20L0 20M20 20L20 70L70 70L70 20L20 20M80 30L80 40L90 40L90 30L80 30z"></path>
<path style="fill:#000000; stroke:none;" d="M30 40L30 60L40 60L40 50L50 50L50 60L60 60L60 50L50 50L50 40L30 40z"></path>
<path style="fill:#ffffff; stroke:none;" d="M80 50L80 60L90 60L90 50L80 50M0 60L0 70L10 70L10 60L0 60M0 80L0 90L20 90L20 80L0 80M30 80L30 90L40 90L40 80L30 80M60 80L60 90L70 90L70 80L60 80z"></path>
</svg>