<svg xmlns="http://www.w3.org/2000/svg" width="19mm" height="19mm" viewBox="0 0 90 90">
<path style="fill:#ffffff; stroke:none;" d="M0 0L0 10L30 10L30 0L0 0z"></path>
<path style="fill:#000000; stroke:none;" d="M30 0L30 10L0 10L0 30L10 30L10 50L0 50L0 80L10 80L10 90L20 90L20 80L30 80L30 90L70 90L70 80L80 80L80 70L90 70L90 50L80 50L80 30L90 30L90 20L80 20L80 10L90 10L90 0L70 0L70 10L60 10L60 0L30 0z"></path>
<path style="fill:#ffffff; stroke:none;" d="M60 0L60 10L70 10L70 0L60 0M80 10L80 20L90 20L90 10L80 10M20 20L20 70L70 70L70 20L20 20M0 30L0 50L10 50L10 30L0 30z"></path>
<path style="fill:#000000; stroke:none;" d="M30 30L30 60L50 60L50 50L60 50L60 30L30 30z"></path>
<path style="fill:#ffffff; stroke:none;" d="M80 30L80 50L90 50L90 30L80 30M40 40L40 50L50 50L50 40L40 40M80 70L80 80L70 80L70 90L90 90L90 70L80 70M0 80L0 90L10 90L10 80L0 80M20 80L20 90L30 90L30 80L20 80z"></path>
</svg>