<svg xmlns="http://www.w3.org/2000/svg" width="19mm" height="19mm" viewBox="0 0 90 90">
<path style="fill:#ffffff; stroke:none;" d="M0 0L0 10L20 10L20 0L0 0z"></path>
<path style="fill:#000000; stroke:none;" d="M20 0L20 10L0 10L0 40L10 40L10 60L0 60L0 70L10 70L10 80L40 80L40 90L50 90L50 80L60 80L60 90L70 90L70 80L80 80L80 50L90 50L90 30L80 30L80 20L90 20L90 10L30 10L30 0L20 0z"></path>
<path style="fill:#ffffff; stroke:none;" d="M30 0L30 10L90 10L90 0L30 0M20 20L20 70L70 70L70 20L20 20M80 20L80 30L90 30L90 20L80 20M0 40L0 60L10 60L10 40L0 40z"></path>
<path style="fill:#000000; stroke:none;" d="M40 40L40 50L30 50L30 60L60 60L60 50L50 50L50 40L40 40z"></path>
<path style="fill:#ffffff; stroke:none;" d="M80 50L80 80L70 80L70 90L90 90L90 50L80 50M0 70L0 90L40 90L40 80L10 80L10 70L0 70M50 80L50 90L60 90L60 80L50 80z"></path>
</svg>