<svg xmlns="http://www.w3.org/2000/svg" width="19mm" height="19mm" viewBox="0 0 90 90">
<path style="fill:#ffffff; stroke:none;" d="M0 0L0 10L20 10L20 0L0 0z"></path>
<path style="fill:#000000; stroke:none;" d="M20 0L20 10L0 10L0 30L10 30L10 40L0 40L0 80L10 80L10 90L20 90L20 80L40 80L40 90L90 90L90 80L80 80L80 70L90 70L90 50L80 50L80 40L90 40L90 30L80 30L80 10L30 10L30 0L20 0z"></path>
<path style="fill:#ffffff; stroke:none;" d="M30 0L30 10L80 10L80 30L90 30L90 0L30 0M20 20L20 70L70 70L70 20L20 20M0 30L0 40L10 40L10 30L0 30z"></path>
<path style="fill:#000000; stroke:none;" d="M30 30L30 50L40 50L40 60L60 60L60 50L50 50L50 40L60 40L60 30L30 30z"></path>
<path style="fill:#ffffff; stroke:none;" d="M80 40L80 50L90 50L90 40L80 40M80 70L80 80L90 80L90 70L80 70M0 80L0 90L10 90L10 80L0 80M20 80L20 90L40 90L40 80L20 80z"></path>
</svg>